<svg width="35" height="31" viewBox="0 0 35 31" fill="none" xmlns="http://www.w3.org/2000/svg">
<path d="M0.414148 23.5937C0.0719101 23.7928 -0.0441226 24.2317 0.154982 24.5739L3.39957 30.151C3.59868 30.4932 4.03752 30.6093 4.37976 30.4102C4.722 30.2111 4.83803 29.7722 4.63893 29.43L1.75484 24.4726L6.71226 21.5885C7.05449 21.3894 7.17053 20.9505 6.97142 20.6083C6.77232 20.2661 6.33347 20.15 5.99124 20.3491L0.414148 23.5937ZM0.5914 24.9065C1.07213 25.0336 1.57191 25.1544 2.08825 25.2674L2.39476 23.8667C1.89814 23.7581 1.41838 23.6421 0.957916 23.5203L0.5914 24.9065ZM5.12774 25.8069C6.11809 25.9433 7.14569 26.0474 8.19746 26.1107L8.28366 24.6795C7.26986 24.6185 6.27879 24.5181 5.32339 24.3865L5.12774 25.8069ZM11.2828 26.173C12.3041 26.1517 13.3367 26.0871 14.3695 25.972L14.2107 24.547C13.2236 24.657 12.2341 24.719 11.2528 24.7395L11.2828 26.173ZM17.4314 25.4738C18.4442 25.2536 19.4474 24.9766 20.4299 24.6354L19.9596 23.2809C19.0354 23.6018 18.0878 23.8637 17.1268 24.0727L17.4314 25.4738ZM23.3069 23.4111C24.2332 22.9361 25.1281 22.3903 25.9803 21.7663L25.1333 20.6094C24.3456 21.1861 23.5157 21.6927 22.6527 22.1351L23.3069 23.4111ZM28.3525 19.6995C29.0658 18.9613 29.73 18.1489 30.3361 17.257L29.1502 16.4511C28.5905 17.2746 27.9782 18.0234 27.3213 18.7032L28.3525 19.6995ZM31.8848 14.5244C32.3102 13.614 32.6844 12.6411 33.0021 11.6024L31.631 11.183C31.3322 12.1599 30.9818 13.07 30.5858 13.9175L31.8848 14.5244ZM33.7276 8.58646C33.9047 7.6067 34.038 6.57831 34.1245 5.49934L32.6952 5.38479C32.6123 6.41912 32.4849 7.40055 32.3166 8.33149L33.7276 8.58646ZM34.2418 2.43172C34.2413 1.92277 34.2314 1.40392 34.2119 0.875L32.7791 0.927818C32.798 1.44007 32.8075 1.9418 32.808 2.43319L34.2418 2.43172Z" fill="black"/>
</svg>
