<svg width="41" height="31" viewBox="0 0 41 31" fill="none" xmlns="http://www.w3.org/2000/svg">
<path d="M40.8732 27.8445C40.8732 28.1925 40.8079 28.5146 40.6771 28.811C40.5463 29.1074 40.3698 29.3716 40.1475 29.6035C39.9252 29.8355 39.6572 30.0159 39.3434 30.1447C39.0295 30.2736 38.7026 30.338 38.3627 30.338H18.2782C17.9251 30.338 17.5982 30.2736 17.2975 30.1447C16.9967 30.0159 16.7352 29.8419 16.5129 29.6228C16.2906 29.4038 16.1076 29.1396 15.9637 28.8303C15.8199 28.5211 15.7545 28.1989 15.7676 27.8639V25.3897H3.0971C2.77021 25.3897 2.46293 25.3317 2.17526 25.2157C1.88759 25.0997 1.63261 24.9322 1.41032 24.7131C1.18803 24.4941 1.01804 24.2428 0.900361 23.9593C0.782679 23.6758 0.717299 23.3665 0.704224 23.0315C0.704224 22.5805 0.776141 22.1294 0.919975 21.6784C1.06381 21.2274 1.29917 20.8344 1.62607 20.4993L5.72535 16.2468V0.647888H33.3415V10.5446H38.3627C38.7026 10.5446 39.023 10.609 39.3237 10.7379C39.6245 10.8668 39.886 11.0407 40.1083 11.2598C40.3306 11.4789 40.5137 11.7366 40.6575 12.033C40.8013 12.3294 40.8732 12.6451 40.8732 12.9801V27.8445ZM15.7676 22.9155V17.9671H7.52982L3.48938 22.1616C3.41092 22.2518 3.35208 22.3678 3.31286 22.5096C3.27363 22.6513 3.24094 22.7866 3.21479 22.9155H15.7676ZM15.7676 13.0188C15.7676 12.6708 15.833 12.3487 15.9637 12.0523C16.0945 11.7559 16.271 11.4982 16.4933 11.2791C16.7156 11.0601 16.9837 10.8796 17.2975 10.7379C17.6113 10.5961 17.9382 10.5317 18.2782 10.5446H30.831V3.12207H8.23591V15.493H15.7676V13.0188ZM38.3627 27.8639V13.0188H18.2782V27.8639H38.3627ZM25.8099 22.9155H30.831V25.3897H25.8099V22.9155Z" fill="black"/>
</svg>
