<svg width="36" height="36" viewBox="0 0 36 36" fill="none" xmlns="http://www.w3.org/2000/svg">
<path d="M25.2494 32.4261C27.6654 32.4261 29.6156 30.4759 29.6156 28.0599C29.6156 25.6439 27.6654 23.6937 25.2494 23.6937C23.3574 23.6937 21.7565 24.9162 21.1452 26.6045H13.81L16.7062 22.151C17.5464 22.267 18.3985 22.267 19.2386 22.151L20.7231 24.436C21.3344 23.6646 22.1203 23.0533 23.0518 22.6749L22.1785 21.3214C23.9614 20.5148 25.4739 19.2113 26.5349 17.567C27.5958 15.9227 28.1601 14.0074 28.1602 12.0505H7.78464C7.78464 16.1838 10.2443 19.7205 13.7809 21.3214L8.03206 30.1702C7.8228 30.4929 7.74973 30.8852 7.82881 31.2615C7.9079 31.6378 8.1327 31.9676 8.45412 32.1787C8.77675 32.3879 9.16908 32.461 9.5454 32.3819C9.92173 32.3028 10.2515 32.078 10.4626 31.7566L11.918 29.5007H21.1452C21.7565 31.2036 23.3574 32.4261 25.2494 32.4261ZM25.2494 26.6045C26.0499 26.6045 26.7048 27.2594 26.7048 28.0599C26.7048 28.8604 26.0499 29.5153 25.2494 29.5153C24.449 29.5153 23.794 28.8604 23.794 28.0599C23.794 27.2594 24.449 26.6045 25.2494 26.6045ZM11.3067 14.9613H24.6382C23.5175 17.5228 20.9414 19.3275 17.9724 19.3275C15.0034 19.3275 12.4274 17.5228 11.3067 14.9613ZM14.2029 10.5951H15.6583C15.8767 8.9214 15.9931 8.20825 14.363 6.28713C13.7518 5.55943 13.3734 5.16647 13.6936 3.31811H12.2527C11.9471 4.93361 12.2964 6.30168 13.548 7.62609C13.8682 7.97539 14.6978 8.60121 14.2029 10.5951ZM17.8123 10.5951H19.2677C19.486 8.9214 19.6025 8.20825 17.9724 6.28713C17.3612 5.55943 16.9828 5.15192 17.3029 3.31811H15.8621C15.5565 4.93361 15.9058 6.30168 17.1574 7.62609C17.4921 7.97539 18.3217 8.60121 17.8123 10.5951ZM21.4799 10.5951H22.9353C23.1537 8.9214 23.2701 8.20825 21.64 6.28713C21.0288 5.55943 20.6504 5.16647 20.9706 3.31811H19.5297C19.2241 4.93361 19.5734 6.30168 20.825 7.62609C21.1452 7.97539 21.9748 8.60121 21.4799 10.5951Z" fill="black"/>
</svg>
