<svg width="30" height="30" viewBox="0 0 30 30" fill="none" xmlns="http://www.w3.org/2000/svg">
<path d="M25.4043 4.32693C24.0572 2.96913 22.4541 1.89205 20.6878 1.15807C18.9216 0.424095 17.0273 0.0477966 15.1146 0.0509671C13.2015 0.0479739 11.3068 0.424342 9.54015 1.1583C7.77346 1.89226 6.16983 2.96923 4.82204 4.32693C-0.852564 10.0001 -0.852564 19.2346 4.82204 24.9092C6.16986 26.2673 7.7737 27.3445 9.54069 28.0784C11.3077 28.8124 13.2027 29.1886 15.1161 29.1851C17.0286 29.1885 18.9229 28.8124 20.6891 28.0787C22.4554 27.345 24.0585 26.2682 25.4057 24.9106C31.0803 19.2375 31.0803 10.003 25.4043 4.32693ZM15.3766 2.97486H14.8541C14.9429 2.97341 15.0273 2.96177 15.1161 2.96177C15.2049 2.96177 15.2878 2.97341 15.3766 2.97486ZM24.1992 21.8951H20.9348L19.1039 25.5568C17.8266 26.0287 16.4762 26.2716 15.1146 26.2744C13.7505 26.2719 12.3976 26.0285 11.1181 25.5554L9.29157 21.9096H6.03875C4.83868 20.4176 4.02711 18.6515 3.67664 16.7691L6.38077 13.1627L4.611 9.62167C5.17571 8.42037 5.94327 7.3254 6.87997 6.38486C8.19097 5.06927 9.79789 4.08666 11.5664 3.51918L15.1132 5.88566L18.6614 3.52064C20.4294 4.08852 22.0361 5.07051 23.3478 6.38486C24.2835 7.32428 25.0505 8.41772 25.6153 9.61731L23.8456 13.1627L26.5497 16.7691C26.2008 18.6454 25.3934 20.4063 24.1992 21.8951Z" fill="black"/>
</svg>
