<svg width="27" height="30" viewBox="0 0 27 30" fill="none" xmlns="http://www.w3.org/2000/svg">
<path d="M0.197189 22.7194C0.197189 22.3236 0.324779 21.9896 0.579959 21.7174C0.835139 21.4452 1.14417 21.3092 1.50705 21.3092C1.7011 21.3092 1.88933 21.3403 2.07174 21.4027C2.25415 21.465 2.42977 21.5576 2.5986 21.6803C2.91393 21.8782 3.22927 22.0514 3.54461 22.1999C3.85994 22.3483 4.19954 22.4225 4.56339 22.4225C5.36386 22.4225 6.04935 22.1321 6.61986 21.5511C7.19038 20.9702 7.47515 20.271 7.47418 19.4535C7.47418 18.637 7.18941 17.9383 6.61986 17.3574C6.05032 16.7765 5.36483 16.4855 4.56339 16.4845C4.19954 16.4845 3.84781 16.5464 3.50822 16.6701C3.16863 16.7938 2.86542 16.9793 2.5986 17.2268C2.45306 17.3505 2.28326 17.4435 2.08921 17.5058C1.89515 17.5682 1.7011 17.5989 1.50705 17.5979C1.1432 17.5979 0.834169 17.4618 0.579959 17.1896C0.32575 16.9175 0.19816 16.5835 0.197189 16.1876V10.5465C0.197189 10.1259 0.336908 9.77355 0.616344 9.48951C0.895781 9.20547 1.2412 9.06296 1.65259 9.06197H7.11033C6.98905 8.69085 6.89833 8.31972 6.83817 7.94859C6.77802 7.57747 6.74745 7.20634 6.74648 6.83521C6.74648 4.97958 7.38346 3.40254 8.65742 2.10409C9.93138 0.80564 11.4775 0.155921 13.2958 0.154931C15.115 0.154931 16.6616 0.80465 17.9356 2.10409C19.2095 3.40353 19.846 4.98057 19.8451 6.83521C19.8451 7.20634 19.815 7.57747 19.7548 7.94859C19.6947 8.31972 19.6035 8.69085 19.4812 9.06197H24.939C25.3513 9.06197 25.6972 9.20448 25.9767 9.48951C26.2561 9.77454 26.3953 10.1269 26.3944 10.5465V16.1876C26.3944 16.6082 26.2546 16.961 25.9752 17.2461C25.6958 17.5311 25.3504 17.6731 24.939 17.6721C24.7449 17.6721 24.5751 17.6286 24.4296 17.5415C24.284 17.4544 24.1385 17.3495 23.993 17.2268C23.7261 16.9793 23.4229 16.7938 23.0833 16.6701C22.7437 16.5464 22.392 16.4845 22.0282 16.4845C21.2277 16.4845 20.5422 16.7755 19.9717 17.3574C19.4012 17.9393 19.1164 18.638 19.1174 19.4535C19.1174 20.27 19.4026 20.9692 19.9731 21.5511C20.5437 22.1331 21.2287 22.4235 22.0282 22.4225C22.392 22.4225 22.7437 22.3607 23.0833 22.237C23.4229 22.1133 23.7261 21.9277 23.993 21.6803C24.1142 21.5566 24.254 21.4512 24.4121 21.3641C24.5703 21.277 24.7459 21.2339 24.939 21.2349C25.3513 21.2349 25.6972 21.3774 25.9767 21.6625C26.2561 21.9475 26.3953 22.2998 26.3944 22.7194V28.3606C26.3944 28.7812 26.2546 29.134 25.9752 29.419C25.6958 29.704 25.3504 29.8461 24.939 29.8451H1.65259C1.24023 29.8451 0.894811 29.7026 0.616344 29.4175C0.337878 29.1325 0.19816 28.7802 0.197189 28.3606V22.7194ZM3.10799 26.8761H23.4836V25.1689C23.241 25.2431 23.0043 25.299 22.7733 25.3366C22.5424 25.3742 22.294 25.3925 22.0282 25.3915C20.4272 25.3915 19.0567 24.8101 17.9167 23.6473C16.7766 22.4844 16.2066 21.0865 16.2066 19.4535C16.2066 17.8206 16.7766 16.4227 17.9167 15.2598C19.0567 14.0969 20.4272 13.5155 22.0282 13.5155C22.295 13.5155 22.5439 13.5343 22.7748 13.5719C23.0057 13.6095 23.242 13.6649 23.4836 13.7382V12.031H16.8615C16.4491 12.031 16.1037 11.8949 15.8253 11.6227C15.5468 11.3506 15.4071 11.0166 15.4061 10.6207C15.4061 10.4228 15.4367 10.2184 15.4978 10.0076C15.5589 9.7968 15.6739 9.63004 15.8427 9.50732C16.2551 9.21042 16.5403 8.82049 16.6985 8.33753C16.8567 7.85457 16.9352 7.3538 16.9343 6.83521C16.9343 5.79606 16.5826 4.91772 15.8791 4.20021C15.1757 3.4827 14.3146 3.12394 13.2958 3.12394C12.277 3.12394 11.4159 3.4827 10.7124 4.20021C10.009 4.91772 9.65728 5.79606 9.65728 6.83521C9.65728 7.35479 9.73636 7.85606 9.89451 8.33902C10.0527 8.82198 10.3374 9.21141 10.7488 9.50732C10.9186 9.63103 11.0341 9.78592 11.0952 9.97197C11.1563 10.158 11.1864 10.3495 11.1855 10.5465C11.1855 10.9671 11.0457 11.3199 10.7663 11.6049C10.4869 11.89 10.1414 12.032 9.73005 12.031H3.10799V13.7382C3.35055 13.6639 3.5873 13.6085 3.81822 13.5719C4.04914 13.5353 4.29753 13.5165 4.56339 13.5155C6.16432 13.5155 7.53482 14.0969 8.67489 15.2598C9.81495 16.4227 10.385 17.8206 10.385 19.4535C10.385 21.0865 9.81495 22.4844 8.67489 23.6473C7.53482 24.8101 6.16432 25.3915 4.56339 25.3915C4.29656 25.3915 4.04769 25.3727 3.81677 25.3351C3.58584 25.2975 3.34958 25.2421 3.10799 25.1689V26.8761Z" fill="black"/>
</svg>
